<?xml version="1.0" encoding="UTF-8" standalone="no" ?>
<!DOCTYPE svg PUBLIC "-//W3C//DTD SVG 1.1//EN" "http://www.w3.org/Graphics/SVG/1.1/DTD/svg11.dtd">
<svg xmlns="http://www.w3.org/2000/svg" xmlns:xlink="http://www.w3.org/1999/xlink" version="1.1" width="32" height="32" viewBox="0 0 32 32" xml:space="preserve">
<!-- Created with SVG Stack Editor - https://svgstack.com -->
<defs>
</defs>
<rect x="0" y="0" width="100%" height="100%" fill="transparent"></rect>
<g transform="matrix(0.16 0 0 0.16 16 16)"  >
<g style=""   >
		<g transform="matrix(1 0 0 1 0 0)" id="path_0"  >
<path style="stroke: none; stroke-width: 1; stroke-dasharray: none; stroke-linecap: butt; stroke-dashoffset: 0; stroke-linejoin: miter; stroke-miterlimit: 4; fill: rgb(255,255,255); fill-rule: nonzero; opacity: 1;"  transform=" translate(-100.84, -100.42)" d="M 200.827 100.423 C 200.827 150.943 163.39 192.708 114.756 199.485 C 110.209 200.116 105.556 200.446 100.834 200.446 C 95.3825 200.446 90.0293 200.011 84.8163 199.17 C 37.2056 191.503 0.840698 150.207 0.840698 100.423 C 0.840698 45.1799 45.6137 0.393799 100.841 0.393799 C 156.068 0.393799 200.841 45.1799 200.841 100.423 L 200.827 100.423 Z" stroke-linecap="round" />
</g>
		<g transform="matrix(1 0 0 1 0 22.75)" id="path_1"  >
<path style="stroke: none; stroke-width: 1; stroke-dasharray: none; stroke-linecap: butt; stroke-dashoffset: 0; stroke-linejoin: miter; stroke-miterlimit: 4; fill: rgb(56,61,56); fill-rule: nonzero; opacity: 1;"  transform=" translate(-100.84, -123.17)" d="M 114.756 80.7146 L 114.756 102.505 L 141.704 102.505 L 137.437 131.858 L 114.756 131.858 L 114.756 199.486 C 110.209 200.116 105.556 200.446 100.834 200.446 C 95.3824 200.446 90.0292 200.011 84.8162 199.17 L 84.8162 131.858 L 59.9634 131.858 L 59.9634 102.505 L 84.8162 102.505 L 84.8162 75.8435 C 84.8162 59.3028 98.2201 45.8879 114.763 45.8879 L 114.763 45.902 C 114.812 45.902 114.854 45.8879 114.903 45.8879 L 141.711 45.8879 L 141.711 71.2738 L 124.194 71.2738 C 118.988 71.2738 114.763 75.5001 114.763 80.7076 L 114.756 80.7146 Z" stroke-linecap="round" />
</g>
</g>
</g>
<g transform="matrix(0.16 0 0 0.16 16 16)"  >
<g style=""   >
		<g transform="matrix(1 0 0 1 0 0)" id="path_0"  >
<path style="stroke: none; stroke-width: 1; stroke-dasharray: none; stroke-linecap: butt; stroke-dashoffset: 0; stroke-linejoin: miter; stroke-miterlimit: 4; fill: rgb(255,255,255); fill-rule: nonzero; opacity: 1;"  transform=" translate(-100.84, -100.42)" d="M 200.827 100.423 C 200.827 150.943 163.39 192.708 114.756 199.485 C 110.209 200.116 105.556 200.446 100.834 200.446 C 95.3825 200.446 90.0293 200.011 84.8163 199.17 C 37.2056 191.503 0.840698 150.207 0.840698 100.423 C 0.840698 45.1799 45.6137 0.393799 100.841 0.393799 C 156.068 0.393799 200.841 45.1799 200.841 100.423 L 200.827 100.423 Z" stroke-linecap="round" />
</g>
		<g transform="matrix(1 0 0 1 0 22.75)" id="path_1"  >
<path style="stroke: none; stroke-width: 1; stroke-dasharray: none; stroke-linecap: butt; stroke-dashoffset: 0; stroke-linejoin: miter; stroke-miterlimit: 4; fill: rgb(56,61,56); fill-rule: nonzero; opacity: 1;"  transform=" translate(-100.84, -123.17)" d="M 114.756 80.7146 L 114.756 102.505 L 141.704 102.505 L 137.437 131.858 L 114.756 131.858 L 114.756 199.486 C 110.209 200.116 105.556 200.446 100.834 200.446 C 95.3824 200.446 90.0292 200.011 84.8162 199.17 L 84.8162 131.858 L 59.9634 131.858 L 59.9634 102.505 L 84.8162 102.505 L 84.8162 75.8435 C 84.8162 59.3028 98.2201 45.8879 114.763 45.8879 L 114.763 45.902 C 114.812 45.902 114.854 45.8879 114.903 45.8879 L 141.711 45.8879 L 141.711 71.2738 L 124.194 71.2738 C 118.988 71.2738 114.763 75.5001 114.763 80.7076 L 114.756 80.7146 Z" stroke-linecap="round" />
</g>
</g>
</g>
</svg>